<svg width="31" height="30" viewBox="0 0 31 30" fill="none" xmlns="http://www.w3.org/2000/svg">
<g clip-path="url(#clip0_9_57)">
<path d="M22.7223 0H9.26478C4.69551 0 0.99353 3.70198 0.99353 8.27125V21.7288C0.99353 26.298 4.69551 30 9.26478 30H22.7223C27.2915 30 30.9935 26.298 30.9935 21.7288V8.27125C30.9935 3.70198 27.2915 0 22.7223 0ZM28.5663 21.6938C28.5663 24.9418 25.9353 27.5728 22.6874 27.5728H9.2997C6.05174 27.5728 3.42077 24.9418 3.42077 21.6938V8.30617C3.42077 5.05821 6.05174 2.42724 9.2997 2.42724H22.6932C25.9411 2.42724 28.5721 5.05821 28.5721 8.30617V21.6996L28.5663 21.6938Z" fill="white"/>
<path d="M15.9935 7.09546C11.628 7.09546 8.08899 10.6345 8.08899 15C8.08899 19.3655 11.628 22.9045 15.9935 22.9045C20.3591 22.9045 23.8981 19.3655 23.8981 15C23.8981 10.6345 20.3591 7.09546 15.9935 7.09546ZM15.9935 20.1572C13.1472 20.1572 10.8364 17.8463 10.8364 15C10.8364 12.1537 13.1472 9.84284 15.9935 9.84284C18.8399 9.84284 21.1507 12.1537 21.1507 15C21.1507 17.8463 18.8399 20.1572 15.9935 20.1572Z" fill="white"/>
<path d="M25.9411 6.83355C25.9411 7.81143 25.1495 8.60887 24.1658 8.60887C23.1821 8.60887 22.3905 7.81725 22.3905 6.83355C22.3905 5.84985 23.1821 5.05823 24.1658 5.05823C25.1495 5.05823 25.9411 5.84985 25.9411 6.83355Z" fill="white"/>
</g>
<defs>
<clipPath id="clip0_9_57">
<rect width="30" height="30" fill="white" transform="translate(0.99353)"/>
</clipPath>
</defs>
</svg>
