<svg width="31" height="30" viewBox="0 0 31 30" fill="none" xmlns="http://www.w3.org/2000/svg">
<g clip-path="url(#clip0_9_60)">
<path d="M30.9935 18.6079V30H24.481V19.3728C24.481 16.7057 23.5428 14.8794 21.1839 14.8794C19.3824 14.8794 18.3151 16.1061 17.8392 17.2915C17.6693 17.7188 17.6217 18.3046 17.6217 18.9042V30H11.1091C11.1091 30 11.1975 11.9986 11.1091 10.1378H17.6217V12.9497C17.6217 12.9497 17.5877 12.991 17.5809 13.0117H17.6217V12.9497C18.485 11.5989 20.0282 9.66919 23.4952 9.66919C27.778 9.66919 30.9935 12.5086 30.9935 18.6079ZM0.99353 30H7.50611V10.1378H0.99353V30ZM7.70325 3.39766C7.70325 5.27223 6.20087 6.79531 4.35179 6.79531C2.50271 6.79531 0.99353 5.27912 0.99353 3.39766C0.99353 1.5162 2.49591 0 4.34499 0C6.19407 0 7.69645 1.52309 7.69645 3.39766H7.70325Z" fill="white"/>
</g>
<defs>
<clipPath id="clip0_9_60">
<rect width="30" height="30" fill="white" transform="translate(0.99353)"/>
</clipPath>
</defs>
</svg>
