<?xml version="1.0" encoding="UTF-8"?>
<svg id="Layer_1" data-name="Layer 1" xmlns="http://www.w3.org/2000/svg" viewBox="0 0 133.99 66.36">
  <defs>
    <style>
      .cls-1 {
        fill: #fff;
      }
    </style>
  </defs>
  <path class="cls-1" d="m7.26,12.35c.68,0,1.19-.19,1.52-.57.35-.38.53-1.03.53-1.94v-3.15c0-.91-.18-1.56-.53-1.94-.33-.38-.84-.57-1.52-.57h-1.98v8.17h1.98ZM1.1.38h6.16c2.08,0,3.64.56,4.67,1.67,1.04,1.11,1.56,2.75,1.56,4.9v2.62c0,2.15-.52,3.79-1.56,4.9s-2.6,1.67-4.67,1.67h-1.98v10.83H1.1V.38Z"/>
  <path class="cls-1" d="m23.74,27.36c-2.03,0-3.57-.57-4.64-1.71-1.06-1.17-1.6-2.82-1.6-4.98V.38h4.18v20.6c0,.91.18,1.57.53,1.98.38.41.91.61,1.6.61s1.2-.2,1.56-.61c.38-.41.57-1.06.57-1.98V.38h4.03v20.29c0,2.15-.53,3.81-1.6,4.98-1.06,1.14-2.61,1.71-4.64,1.71Z"/>
  <polygon class="cls-1" points="34.85 .38 39.03 .38 39.03 23.18 45.91 23.18 45.91 26.98 34.85 26.98 34.85 .38"/>
  <path class="cls-1" d="m55.25,27.36c-2.03,0-3.56-.57-4.6-1.71-1.04-1.17-1.56-2.82-1.56-4.98v-1.52h3.95v1.82c0,1.72.72,2.58,2.17,2.58.71,0,1.24-.2,1.6-.61.38-.43.57-1.11.57-2.05,0-1.11-.25-2.09-.76-2.93-.51-.86-1.44-1.89-2.81-3.08-1.72-1.52-2.93-2.89-3.61-4.1-.68-1.24-1.03-2.63-1.03-4.18,0-2.1.53-3.72,1.6-4.86,1.06-1.17,2.61-1.75,4.64-1.75s3.51.58,4.52,1.75c1.04,1.14,1.56,2.79,1.56,4.94v1.1h-3.95v-1.37c0-.91-.18-1.57-.53-1.98-.35-.43-.87-.65-1.56-.65-1.39,0-2.09.85-2.09,2.55,0,.96.25,1.86.76,2.7.53.84,1.48,1.85,2.85,3.04,1.75,1.52,2.95,2.9,3.61,4.14.66,1.24.99,2.7.99,4.37,0,2.18-.54,3.85-1.63,5.02-1.06,1.17-2.62,1.75-4.67,1.75Z"/>
  <polygon class="cls-1" points="65.85 .38 77.25 .38 77.25 4.18 70.03 4.18 70.03 11.21 75.77 11.21 75.77 15.01 70.03 15.01 70.03 23.18 77.25 23.18 77.25 26.98 65.85 26.98 65.85 .38"/>
  <path class="cls-1" d="m8.89,57.16l-1.86-13.15h-.08l-1.82,13.15h3.76Zm-4.56-17.78h5.66l4.33,26.6h-4.18l-.76-5.28v.08h-4.75l-.76,5.21H0l4.33-26.6Z"/>
  <polygon class="cls-1" points="19.78 43.18 15.41 43.18 15.41 39.38 28.33 39.38 28.33 43.18 23.96 43.18 23.96 65.98 19.78 65.98 19.78 43.18"/>
  <polygon class="cls-1" points="32.25 39.38 36.43 39.38 36.43 50.21 40.92 50.21 40.92 39.38 45.1 39.38 45.1 65.98 40.92 65.98 40.92 54.01 36.43 54.01 36.43 65.98 32.25 65.98 32.25 39.38"/>
  <polygon class="cls-1" points="50.11 39.38 54.29 39.38 54.29 62.18 61.17 62.18 61.17 65.98 50.11 65.98 50.11 39.38"/>
  <polygon class="cls-1" points="65.07 39.38 76.47 39.38 76.47 43.18 69.25 43.18 69.25 50.21 74.99 50.21 74.99 54.01 69.25 54.01 69.25 62.18 76.47 62.18 76.47 65.98 65.07 65.98 65.07 39.38"/>
  <polygon class="cls-1" points="84.04 43.18 79.67 43.18 79.67 39.38 92.59 39.38 92.59 43.18 88.22 43.18 88.22 65.98 84.04 65.98 84.04 43.18"/>
  <rect class="cls-1" x="96.52" y="39.38" width="4.18" height="26.6"/>
  <path class="cls-1" d="m111.62,66.36c-2,0-3.53-.57-4.6-1.71-1.04-1.14-1.56-2.75-1.56-4.83v-14.29c0-2.08.52-3.69,1.56-4.83,1.06-1.14,2.6-1.71,4.6-1.71s3.52.57,4.56,1.71c1.06,1.14,1.6,2.75,1.6,4.83v2.81h-3.95v-3.08c0-1.65-.7-2.47-2.09-2.47s-2.09.82-2.09,2.47v14.86c0,1.62.7,2.43,2.09,2.43s2.09-.81,2.09-2.43v-4.07h3.95v3.76c0,2.08-.53,3.69-1.6,4.83-1.04,1.14-2.56,1.71-4.56,1.71Z"/>
  <path class="cls-1" d="m127.68,66.36c-2.03,0-3.56-.57-4.6-1.71-1.04-1.17-1.56-2.82-1.56-4.98v-1.52h3.95v1.82c0,1.72.72,2.58,2.17,2.58.71,0,1.24-.2,1.6-.61.38-.43.57-1.11.57-2.05,0-1.11-.25-2.09-.76-2.93-.51-.86-1.44-1.89-2.81-3.08-1.72-1.52-2.93-2.89-3.61-4.1-.68-1.24-1.03-2.63-1.03-4.18,0-2.1.53-3.72,1.6-4.86,1.06-1.17,2.61-1.75,4.64-1.75s3.51.58,4.52,1.75c1.04,1.14,1.56,2.79,1.56,4.94v1.1h-3.95v-1.37c0-.91-.18-1.57-.53-1.98-.35-.43-.87-.65-1.56-.65-1.39,0-2.09.85-2.09,2.55,0,.96.25,1.86.76,2.7.53.84,1.48,1.85,2.85,3.04,1.75,1.52,2.95,2.9,3.61,4.14s.99,2.7.99,4.37c0,2.18-.54,3.85-1.63,5.02-1.06,1.17-2.62,1.75-4.67,1.75Z"/>
</svg>