<svg width="32" height="26" viewBox="0 0 32 26" fill="none" xmlns="http://www.w3.org/2000/svg">
<path d="M31.9935 3.07792C30.8179 3.5974 29.5515 3.95455 28.22 4.11039C29.5774 3.2987 30.6166 2.01299 31.1102 0.480519C29.8437 1.23377 28.4343 1.77922 26.9405 2.07143C25.7455 0.798701 24.0373 0 22.1474 0C18.5232 0 15.5811 2.94156 15.5811 6.56493C15.5811 7.07792 15.6395 7.57792 15.7499 8.05844C10.2943 7.78571 5.45565 5.17532 2.22123 1.2013C1.65618 2.16883 1.33144 3.2987 1.33144 4.5C1.33144 6.77922 2.49401 8.78571 4.25411 9.96104C3.17597 9.92857 2.16278 9.62987 1.27948 9.13636C1.27948 9.16234 1.27948 9.19481 1.27948 9.22078C1.27948 12.4026 3.54617 15.0519 6.54678 15.6558C5.99472 15.8052 5.41668 15.8896 4.81916 15.8896C4.397 15.8896 3.98133 15.8506 3.58514 15.7727C4.42298 18.3831 6.84554 20.2792 9.71626 20.3312C7.46905 22.0909 4.6373 23.1429 1.56525 23.1429C1.03917 23.1429 0.513091 23.1104 0 23.0519C2.90319 24.9156 6.35843 26 10.0605 26C22.1344 26 28.7396 16 28.7396 7.32468C28.7396 7.03896 28.7396 6.75974 28.7201 6.47403C30.0061 5.54545 31.1167 4.38961 31.9935 3.07792Z" fill="white"/>
</svg>
